<svg xmlns="http://www.w3.org/2000/svg" viewBox="0 0 36 36" role="img" aria-labelledby="instagramTitle">
  <title id="instagramTitle">Instagram</title>
  <defs>
    <radialGradient id="igA" cx="30%" cy="107%" r="150%">
      <stop offset="0" stop-color="#fdf497"/>
      <stop offset=".05" stop-color="#fdf497"/>
      <stop offset=".45" stop-color="#fd5949"/>
      <stop offset=".6" stop-color="#d6249f"/>
      <stop offset=".9" stop-color="#285AEB"/>
    </radialGradient>
  </defs>
  <rect width="36" height="36" rx="9" fill="url(#igA)"/>
  <path fill="#fff" d="M18 9.3c2.83 0 3.17.01 4.29.06 1.03.05 1.59.22 1.97.36.49.19.84.42 1.21.79.37.37.6.72.79 1.21.14.38.31.94.36 1.97.05 1.12.06 1.46.06 4.29s-.01 3.17-.06 4.29c-.05 1.03-.22 1.59-.36 1.97-.19.49-.42.84-.79 1.21-.37.37-.72.6-1.21.79-.38.14-.94.31-1.97.36-1.12.05-1.46.06-4.29.06s-3.17-.01-4.29-.06c-1.03-.05-1.59-.22-1.97-.36a3.28 3.28 0 0 1-1.21-.79 3.28 3.28 0 0 1-.79-1.21c-.14-.38-.31-.94-.36-1.97-.05-1.12-.06-1.46-.06-4.29s.01-3.17.06-4.29c.05-1.03.22-1.59.36-1.97.19-.49.42-.84.79-1.21.37-.37.72-.6 1.21-.79.38-.14.94-.31 1.97-.36 1.12-.05 1.46-.06 4.29-.06Zm0-1.91c-2.88 0-3.24.01-4.38.06-1.13.05-1.9.23-2.58.49a5.18 5.18 0 0 0-1.88 1.22 5.18 5.18 0 0 0-1.22 1.88c-.26.68-.44 1.45-.49 2.58-.05 1.14-.06 1.5-.06 4.38s.01 3.24.06 4.38c.05 1.13.23 1.9.49 2.58.27.7.63 1.29 1.22 1.88.59.59 1.18.95 1.88 1.22.68.26 1.45.44 2.58.49 1.14.05 1.5.06 4.38.06s3.24-.01 4.38-.06c1.13-.05 1.9-.23 2.58-.49.7-.27 1.29-.63 1.88-1.22.59-.59.95-1.18 1.22-1.88.26-.68.44-1.45.49-2.58.05-1.14.06-1.5.06-4.38s-.01-3.24-.06-4.38c-.05-1.13-.23-1.9-.49-2.58a5.18 5.18 0 0 0-1.22-1.88 5.18 5.18 0 0 0-1.88-1.22c-.68-.26-1.45-.44-2.58-.49-1.14-.05-1.5-.06-4.38-.06Z"/>
  <path fill="#fff" d="M18 12.55a5.45 5.45 0 1 0 0 10.9 5.45 5.45 0 0 0 0-10.9Zm0 8.99a3.54 3.54 0 1 1 0-7.08 3.54 3.54 0 0 1 0 7.08Z"/>
  <circle cx="23.66" cy="12.34" r="1.27" fill="#fff"/>
</svg>
