<svg xmlns="http://www.w3.org/2000/svg" viewBox="0 0 160 120" role="img" aria-labelledby="title desc">
  <title id="title">Export cargo ship</title>
  <desc id="desc">A cargo ship carrying stacked containers for import and export supply.</desc>
  <path fill="#030303" d="M29 72h102c-3 15-13 27-28 34H51C39 100 31 88 29 72Z"/>
  <path fill="#030303" d="M20 65h120c3 0 5 3 4 6l-5 18c-1 4-5 7-9 7h-8c6-7 10-16 12-26H27c2 10 7 19 13 26h-8c-4 0-8-3-9-7l-5-18c-1-3 1-6 4-6Z"/>
  <path fill="#030303" d="M48 43h18v18H48V43Zm23 0h18v18H71V43Zm23 0h18v18H94V43ZM59 22h18v17H59V22Zm23 0h18v17H82V22Z"/>
  <path fill="#030303" d="M106 29h17c3 0 5 2 5 5v27h-22V29Z"/>
  <path fill="#fff" d="M113 36h8v8h-8v-8Zm0 12h8v8h-8v-8Z"/>
  <path fill="#030303" d="M38 103h86c4 0 7 3 7 7H31c0-4 3-7 7-7Z"/>
</svg>
